<svg xmlns="http://www.w3.org/2000/svg" viewBox="0 0 92.94 79.72"><defs><style>.cls-1{fill:#004b72;}.cls-2{fill:#2c98ad;}</style></defs><g id="Capa_2" data-name="Capa 2"><g id="Capa_1-2" data-name="Capa 1"><g id="VIhN5r.tif"><path class="cls-1" d="M57.07,0A45.21,45.21,0,0,0,46.82.85a39.64,39.64,0,0,0-8.65,2.83,40.76,40.76,0,0,0-17.1,14.83A38.5,38.5,0,0,0,15.34,35.2c-.08.75-.08.78.69.7,1.41-.14,2.81-.2,4.22-.39.91-.13,1-.06,1-1a27.9,27.9,0,0,1,1.05-6,36.59,36.59,0,0,1,4.36-10.14,38.43,38.43,0,0,1,8.89-10A41.62,41.62,0,0,1,39.76,5.5a37.2,37.2,0,0,1,7.62-3.41A31.73,31.73,0,0,1,51.66,1,39.4,39.4,0,0,1,59.71.33,19.81,19.81,0,0,0,57.07,0Z"/></g><path class="cls-2" d="M64.81,75.77a39.08,39.08,0,0,1-21.34-3c-.24-.1-.53-.3-.46-.55s.24-.25.41-.31c9.78-3.25,19.66-7.52,28.15-13.42.89-.62,1.36.17,2.2.47A2.76,2.76,0,1,0,72,56.81a2.07,2.07,0,0,1,0,.7c-.12.58-1.65,1.16-2.12,1.44-.83.49-1.66,1-2.51,1.43q-2.59,1.44-5.28,2.74c-3.46,1.69-7,3.21-10.61,4.59a142.26,142.26,0,0,1-15.67,4.91C30.25,74,24.44,75.28,18.67,74.55c-1.62-.2-3.85-.34-4.52-2.11-.53-1.36.1-3,.78-4.21a9.31,9.31,0,0,0,1.2-2.07,14.44,14.44,0,0,0-2.48,1.2C11.55,69,9,72.19,10.59,75a3.9,3.9,0,0,0,1.46,1.33c3,1.7,7.1,1.18,10.42.88a55.51,55.51,0,0,0,11.12-2.24,2.77,2.77,0,0,1,2.1,0l1.81.91a39.38,39.38,0,0,0,25,3.16A39.86,39.86,0,0,0,74,74.74a41,41,0,0,0,5.24-3.43c1.61-1.25,2.87-2.78,4.39-4.1A38.49,38.49,0,0,1,64.81,75.77Zm9.87-21.33a1.89,1.89,0,1,1-1.89,1.89A1.89,1.89,0,0,1,74.68,54.44Z"/><path class="cls-2" d="M90.21,28.46a2.59,2.59,0,0,0-1.16.33,2.71,2.71,0,0,0-1.2,1.54c-.2.7.07,1.45-.27,2.12a1.76,1.76,0,0,1-.74.66A188.27,188.27,0,0,1,61,46C49.45,50.64,37.42,54.5,25.06,56.33c-5.38.8-12.11,1.92-17.25-.41A5,5,0,0,1,5,53.27c-.62-1.8.37-3.74,1.36-5.19a26.34,26.34,0,0,1,3.91-4.52,26.6,26.6,0,0,0-5.28,4C2.72,49.71-1.12,53.87.31,57.36A4.87,4.87,0,0,0,3.49,59.9c5.08,1.6,10.56.91,15.75.36a1.71,1.71,0,0,1,1.8,1,50.6,50.6,0,0,0,5,6.38A35.11,35.11,0,0,0,29,70.44c.74.62,1.65,1.65,2.66,1.74a5.28,5.28,0,0,0,1.63-.2l5.21-1.2a.48.48,0,0,0,.34-.2c.07-.15,0-.33-.16-.45a32.4,32.4,0,0,0-3.42-2.43,33.3,33.3,0,0,1-4.43-4.13c-1.09-1.21-2.09-2.5-3.09-3.78-1.28-1.65,1.66-1.68,2.74-1.93A187.22,187.22,0,0,0,61.71,47.2c4.48-1.94,8.73-4.29,13.15-6.35s8.39-4.92,12.48-7.39a2.37,2.37,0,0,1,.67-.3,1.27,1.27,0,0,1,.66.11,5.64,5.64,0,0,0,1.62.39,2.6,2.6,0,1,0-.08-5.2Zm.12,4.42h-.09l-.24,0a1.82,1.82,0,1,1,.33,0Z"/><path class="cls-1" d="M76,15.49a1.85,1.85,0,0,0-.3-.39,2.75,2.75,0,0,0-2.88-.68,2.81,2.81,0,0,0-1.62,3.29.94.94,0,0,1,.08.63.82.82,0,0,1-.41.39A162.9,162.9,0,0,1,46,30.28c-2.45.9-4.93,1.73-7.42,2.49-3.91,1.19-7.84,2.3-11.84,3.12A66.07,66.07,0,0,1,15.1,37.43a19.29,19.29,0,0,1-6.23-.79A4.74,4.74,0,0,1,5.8,34.39a4.24,4.24,0,0,1,.41-3.56A22.79,22.79,0,0,1,10,26.1,24.76,24.76,0,0,0,4.25,31c-1.3,1.55-2.89,3.83-2.19,6A4.25,4.25,0,0,0,4.89,39.3a21.11,21.11,0,0,0,8.89.63,1.5,1.5,0,0,1,1,.13,1.49,1.49,0,0,1,.44,1.27,40.27,40.27,0,0,0,2.89,13.83,1,1,0,0,0,.37.53.94.94,0,0,0,.55.05l5.51-.54a.44.44,0,0,0,.32-.12.46.46,0,0,0,0-.45c-.42-.89-.87-1.78-1.22-2.7A40.13,40.13,0,0,1,21,39.59a.59.59,0,0,1,.56-.71l1.46-.32A148,148,0,0,0,60.34,25.34c.08.08.23,0,.33,0,3.31-2,6.74-3.84,10-5.88a1.85,1.85,0,0,1,1.1-.39c.66.07,1.17.51,1.87.51A2.64,2.64,0,0,0,76,15.49Zm-.46,1.78a1.61,1.61,0,0,1-.61,1,1.84,1.84,0,0,1-1.21.45,1.86,1.86,0,0,1-1.56-.84,1.36,1.36,0,0,1-.3-.83,1.27,1.27,0,0,1,0-.2,1.87,1.87,0,1,1,3.74,0A1.74,1.74,0,0,1,75.5,17.27Z"/></g></g></svg>